HIERARCHY
ROOT Hips
{
	OFFSET 0.000000 0.000000 0.000000 
	CHANNELS 6 Xposition Yposition Zposition Zrotation Yrotation Xrotation
	JOINT LeftUpLeg
	{
		OFFSET 1.363060 -1.794630 0.839290 
		CHANNELS 3 Zrotation Yrotation Xrotation
		JOINT LeftLeg
		{
			OFFSET 2.448110 -6.726130 0.000000 
			CHANNELS 3 Zrotation Yrotation Xrotation
			JOINT LeftFoot
			{
				OFFSET 2.562200 -7.039590 0.000000 
				CHANNELS 3 Zrotation Yrotation Xrotation
				JOINT LeftToeBase
				{
					OFFSET 0.157640 -0.433110 2.322550 
					CHANNELS 3 Zrotation Yrotation Xrotation
					End Site
					{
						OFFSET 0.000000 0.000000 0.000000 
					}
				}
			}
		}
	}
	JOINT RightUpLeg
	{
		OFFSET -1.305520 -1.794630 0.839290 
		CHANNELS 3 Zrotation Yrotation Xrotation
		JOINT RightLeg
		{
			OFFSET -2.542530 -6.985550 0.000000 
			CHANNELS 3 Zrotation Yrotation Xrotation
			JOINT RightFoot
			{
				OFFSET -2.568260 -7.056230 0.000000 
				CHANNELS 3 Zrotation Yrotation Xrotation
				JOINT RightToeBase
				{
					OFFSET -0.164730 -0.452590 2.363150 
					CHANNELS 3 Zrotation Yrotation Xrotation
					End Site
					{
						OFFSET 0.000000 0.000000 0.000000 
					}
				}
			}
		}
	}
	JOINT Spine
	{
		OFFSET 0.028270 2.035590 -0.193380 
		CHANNELS 3 Zrotation Yrotation Xrotation
		JOINT Spine1
		{
			OFFSET 0.056720 2.048850 -0.042750 
			CHANNELS 3 Zrotation Yrotation Xrotation
			JOINT Neck1
			{
				OFFSET -0.054170 1.746240 0.172020 
				CHANNELS 3 Zrotation Yrotation Xrotation
				JOINT Head
				{
					OFFSET 0.104070 1.761360 -0.123970 
					CHANNELS 3 Zrotation Yrotation Xrotation
					End Site
					{
						OFFSET 0.000000 0.000000 0.000000 
					}
				}
			}
			JOINT LeftArm
			{
				OFFSET 3.362410 1.200890 -0.311210 
				CHANNELS 3 Zrotation Yrotation Xrotation
				JOINT LeftForeArm
				{
					OFFSET 4.983000 -0.000000 -0.000000 
					CHANNELS 3 Zrotation Yrotation Xrotation
					JOINT LeftHand
					{
						OFFSET 3.483560 -0.000000 -0.000000 
						CHANNELS 3 Zrotation Yrotation Xrotation
						JOINT LeftHandIndex1
						{
							OFFSET 0.715260 -0.000000 -0.000000 
							CHANNELS 3 Zrotation Yrotation Xrotation
							End Site
							{
								OFFSET 0.000000 0.000000 0.000000 
							}
						}
					}
				}
			}
			JOINT RightArm
			{
				OFFSET -3.136600 1.374050 -0.404650 
				CHANNELS 3 Zrotation Yrotation Xrotation
				JOINT RightForeArm
				{
					OFFSET -5.241900 -0.000000 -0.000000 
					CHANNELS 3 Zrotation Yrotation Xrotation
					JOINT RightHand
					{
						OFFSET -3.444170 -0.000000 -0.000000 
						CHANNELS 3 Zrotation Yrotation Xrotation
						JOINT RightHandIndex1
						{
							OFFSET -0.622530 -0.000000 -0.000000 
							CHANNELS 3 Zrotation Yrotation Xrotation
							End Site
							{
								OFFSET 0.000000 0.000000 0.000000 
							}
						}
					}
				}
			}
		}
	}
}
MOTION
Frames: 10
Frame Time: 0.041667
-0.078111 18.427397 0.564216 -79.944953 89.299297 -48.729949 -11.084582 -17.118040 -11.118846 -1.964905 0.848153 -0.068370 -5.090288 20.795867 2.752939 0.793300 -5.685400 -15.874300 14.473217 17.048638 -16.501683 1.299237 -4.778053 10.040310 5.669140 -21.709178 -4.305894 -0.687400 5.300600 -14.767900 -1.587486 0.757906 -62.693429 0.797966 1.068160 5.170554 11.415581 -2.952418 21.153257 4.406900 -0.715300 7.093900 -92.954440 20.101518 -17.356388 13.009413 -19.771791 -1.621265 1.036913 -1.419043 -0.014280 -7.125000 0.000000 0.000000 88.843153 -17.038597 -28.364895 -12.176108 14.743344 -1.553487 -1.089625 0.761958 15.767663 7.125000 0.000000 0.000000 
-0.081929 18.428842 0.562771 -75.765377 89.318750 -44.561543 -11.119898 -17.012946 -11.114046 -1.964670 0.838054 -0.058092 -5.077344 20.743231 2.757803 0.798100 -5.702000 -15.922100 14.449825 17.041102 -16.499388 1.305434 -4.750618 9.925724 5.674665 -21.757163 -4.089021 -0.713900 5.399800 -15.052500 -1.970024 0.564071 -62.665341 0.845821 1.052801 5.109738 11.525855 -3.018161 21.284805 4.436800 -0.733000 7.139200 -92.806346 20.056474 -17.132737 13.127526 -20.010294 -1.728945 1.041535 -1.424469 0.355298 -7.125000 0.000000 0.000000 88.952877 -17.113537 -28.892266 -12.218009 14.837328 -1.565818 -1.081712 0.768784 16.068203 7.125000 0.000000 0.000000 
-0.083889 18.426159 0.564525 -74.616706 89.128786 -43.483407 -10.972504 -16.856048 -11.071271 -1.964090 0.837896 -0.037615 -5.018515 20.493621 2.568571 0.679300 -5.270000 -14.680200 14.609886 17.158207 -16.292977 1.318985 -4.659423 9.679731 5.706298 -21.886823 -3.880731 -0.751500 5.536900 -15.446600 -1.721012 0.736494 -62.659704 0.687714 1.110300 5.022360 11.534310 -3.057392 21.410306 4.442700 -0.748300 7.174500 -92.692480 20.090966 -16.745703 13.247255 -20.228774 -1.803035 1.053342 -1.425372 0.608073 -7.125000 0.000000 0.000000 89.045735 -17.235743 -29.169817 -12.312076 14.988328 -1.586792 -1.076579 0.774468 16.233834 7.125000 0.000000 0.000000 
-0.084405 18.422650 0.571026 -77.864961 88.686803 -46.876818 -10.599127 -16.690432 -10.994240 -1.961799 0.854204 -0.017201 -4.961820 20.232064 2.278836 0.533500 -4.680500 -12.999500 15.011059 17.515909 -15.975484 1.321625 -4.612841 9.618358 5.767126 -22.070706 -4.018530 -0.747800 5.523700 -15.408600 -0.627237 1.374341 -62.651554 0.274028 1.234552 5.050166 11.461314 -3.038927 21.443799 4.424300 -0.745700 7.167500 -92.681070 20.058848 -16.185023 13.387969 -20.449014 -1.869583 1.052805 -1.436087 0.159923 -7.125000 0.000000 0.000000 89.044990 -17.398954 -28.818932 -12.448117 15.154664 -1.610849 -1.077008 0.774857 15.803780 7.125000 0.000000 0.000000 
-0.086056 18.422960 0.574637 -74.563685 88.633977 -43.610586 -10.700851 -16.590566 -10.957233 -1.960844 0.853671 -0.020858 -5.011514 20.452596 2.500933 0.719500 -5.420300 -15.111300 14.934316 17.741146 -15.901279 1.322017 -4.613842 9.610757 5.808546 -22.191887 -4.075550 -0.746300 5.518100 -15.392300 -0.095024 1.631990 -62.635826 0.236214 1.225570 5.164697 11.284430 -2.990466 21.471907 4.377200 -0.736600 7.165300 -92.750358 19.845978 -15.774544 13.525432 -20.650522 -1.944929 1.051559 -1.445738 -0.301319 -7.125000 0.000000 0.000000 88.966135 -17.559517 -28.150048 -12.600166 15.333225 -1.640608 -1.082090 0.772012 15.123620 7.125000 0.000000 0.000000 
-0.089565 18.425849 0.570510 -66.624089 88.860030 -35.576043 -11.068714 -16.560242 -11.013240 -1.963247 0.835414 -0.025233 -5.052011 20.640637 2.697474 0.884700 -5.995900 -16.772400 14.551841 17.640053 -16.136534 1.319898 -4.656579 9.651930 5.774167 -22.092910 -3.933616 -0.738800 5.491100 -15.314800 -0.387207 1.413701 -62.649422 0.473120 1.128405 5.261881 11.277933 -2.967538 21.431467 4.384400 -0.731600 7.154400 -92.789886 19.675176 -15.388324 13.690162 -20.895470 -2.018278 1.079988 -1.438090 -0.390291 -7.125000 0.000000 0.000000 88.951515 -17.671185 -27.801564 -12.745114 15.526417 -1.674511 -1.083400 0.771988 14.761399 7.125000 0.000000 0.000000 
-0.096065 18.428326 0.561533 -63.271600 89.064800 -32.185224 -11.271262 -16.621895 -11.023461 -1.965450 0.820472 -0.024088 -5.048677 20.632049 2.713808 0.907700 -6.071300 -16.991400 14.372513 17.318159 -16.406787 1.310212 -4.739750 9.828187 5.676596 -21.798650 -3.841289 -0.747000 5.520900 -15.400500 -0.955604 1.044417 -62.651417 0.636477 1.030526 5.239974 11.236791 -2.956840 21.399451 4.365300 -0.729500 7.137000 -92.745970 19.743671 -14.252063 13.986388 -21.363751 -2.157421 1.112208 -1.440029 -1.330076 -7.125000 0.000000 0.000000 88.990425 -17.798098 -27.321791 -12.877388 15.687701 -1.701616 -1.085325 0.762956 14.399604 7.125000 0.000000 0.000000 
-0.100605 18.430492 0.553484 -62.498440 89.135910 -31.429442 -11.357935 -16.646499 -10.988582 -1.965669 0.815653 -0.025476 -5.060065 20.689989 2.799120 0.924300 -6.125000 -17.147500 14.355997 17.042173 -16.585561 1.297970 -4.815241 10.011009 5.594161 -21.556338 -3.740915 -0.784600 5.654700 -15.785800 -1.131166 0.911809 -62.628839 0.654983 0.981890 5.292218 11.186639 -2.960292 21.443005 4.343500 -0.732000 7.144200 -92.772904 19.810349 -12.910553 14.395758 -21.993249 -2.339123 1.141432 -1.453470 -2.773421 -7.125000 0.000000 0.000000 88.985200 -17.807596 -27.050970 -12.978478 15.820542 -1.723369 -1.082720 0.763675 14.334916 7.125000 0.000000 0.000000 
-0.105971 18.427913 0.549976 -62.000537 89.138597 -30.958540 -11.349520 -16.650902 -11.003356 -1.966950 0.812962 -0.017800 -5.011430 20.498609 2.658961 0.760700 -5.569800 -15.541200 14.345825 16.971410 -16.660788 1.289973 -4.856455 10.116704 5.573769 -21.496339 -3.712369 -0.789400 5.671800 -15.835200 -0.924744 0.982171 -62.622788 0.608281 0.956868 5.316283 11.120767 -2.937249 21.462668 4.327900 -0.727500 7.140400 -92.807204 19.787583 -11.949516 14.697752 -22.447761 -2.476296 1.166202 -1.459790 -3.580252 -7.125000 0.000000 0.000000 88.912615 -17.675856 -27.090965 -13.000878 15.865936 -1.726828 -1.075366 0.768290 14.630521 7.125000 0.000000 0.000000 
-0.108241 18.426778 0.548944 -59.524147 89.063227 -28.459037 -11.337240 -16.563147 -11.044337 -1.969850 0.806083 0.004902 -4.939895 20.168865 2.267935 0.556300 -4.777500 -13.275000 14.322055 16.987635 -16.718583 1.290457 -4.861702 10.118695 5.545137 -21.411073 -3.676427 -0.790800 5.676700 -15.849200 -0.769532 1.074746 -62.621608 0.568701 0.973351 5.347846 11.125932 -2.933891 21.571116 4.333000 -0.721200 7.174000 -92.721651 19.735934 -11.057394 14.875546 -22.710606 -2.567148 1.179211 -1.461907 -4.008992 -7.125000 0.000000 0.000000 88.882108 -17.488845 -27.268439 -12.979541 15.855274 -1.722221 -1.067904 0.773813 15.038386 7.125000 0.000000 0.000000 
